<svg id="Camada_1" data-name="Camada 1" xmlns="http://www.w3.org/2000/svg" viewBox="0 0 212.25 243.43"><defs><style>.cls-1{fill:#fff;}</style></defs><path class="cls-1" d="M341.18,134.29H308.25a21,21,0,0,0-20.95,21v77.33l-61.44-87.85a20.53,20.53,0,0,0-3.12-3.5,20.88,20.88,0,0,0-15.5-6.93H174.32a21,21,0,0,0-20.95,21V273.18C163.08,262.5,175.82,256,189.78,256c21.67,0,35.29,18.46,49.42,38.35l50.73,72.53a21,21,0,0,0,18.32,10.83h32.93a21,21,0,0,0,20.95-20.95V155.24A21,21,0,0,0,341.18,134.29Z" transform="translate(-149.87 -134.29)"/><circle class="cls-1" cx="189.78" cy="337.81" r="39.91" transform="translate(-201.53 -99.52) rotate(-9.22)"/></svg>